PathFileType	4	(X/Y/Z)	/Users/itak/Documents/Research/Walk-IL/dataset/trc/00452_00167.trc
DataRate	CameraRate	NumFrames	NumMarkers	Units	OrigDataRate	OrigDataStartFrame	OrigNumFrames
100.000000	100.000000	4	53	mm	100.000000	0	437
Frame#	Time	RPSI			LPSI			L3			STRN			T10			C7			CLAV			RBAK			LBAK			LSHO			LUPA			LAEL			LAOL			LWTS			LWPS			LFRA			LIFD			LHPS			LHTS			RSHO			RUPA			RAEL			RAOL			RWTS			RWPS			RFRA			RIFD			RHTS			RHPS			RBHD			LFHD			RFHD			LBHD			LHIP			RHIP			RASI			LASI			LKNE			LTHI			LANK			LTIP			LTOE			LMT1			LMT5			LHEE			RKNE			RTHI			RANK			RTIP			RTOE			RMT1			RMT5			RHEE			
		X1	Y1	Z1	X2	Y2	Z2	X3	Y3	Z3	X4	Y4	Z4	X5	Y5	Z5	X6	Y6	Z6	X7	Y7	Z7	X8	Y8	Z8	X9	Y9	Z9	X10	Y10	Z10	X11	Y11	Z11	X12	Y12	Z12	X13	Y13	Z13	X14	Y14	Z14	X15	Y15	Z15	X16	Y16	Z16	X17	Y17	Z17	X18	Y18	Z18	X19	Y19	Z19	X20	Y20	Z20	X21	Y21	Z21	X22	Y22	Z22	X23	Y23	Z23	X24	Y24	Z24	X25	Y25	Z25	X26	Y26	Z26	X27	Y27	Z27	X28	Y28	Z28	X29	Y29	Z29	X30	Y30	Z30	X31	Y31	Z31	X32	Y32	Z32	X33	Y33	Z33	X34	Y34	Z34	X35	Y35	Z35	X36	Y36	Z36	X37	Y37	Z37	X38	Y38	Z38	X39	Y39	Z39	X40	Y40	Z40	X41	Y41	Z41	X42	Y42	Z42	X43	Y43	Z43	X44	Y44	Z44	X45	Y45	Z45	X46	Y46	Z46	X47	Y47	Z47	X48	Y48	Z48	X49	Y49	Z49	X50	Y50	Z50	X51	Y51	Z51	X52	Y52	Z52	X53	Y53	Z53	

1	0	-1832.749755859375	962.8861694335938	-561.4166870117188	-1765.535888671875	963.5714721679688	-685.0752563476562	-1797.437866210938	1057.391235351562	-602.84619140625	-1554.73779296875	1256.219848632812	-490.4500122070312	-1810.95263671875	1182.502685546875	-612.6543579101562	-1759.811889648438	1451.925659179688	-570.033203125	-1586.70849609375	1370.128051757812	-509.3561706542969	-1857.78076171875	1330.75439453125	-515.701171875	-1749.578491210938	1404.778198242188	-672.9825439453125	-1623.100708007812	1428.901245117188	-708.0476684570312	-1595.09375	1309.928100585938	-802.7999877929688	-1568.656372070312	1095.713256835938	-830.869140625	-1660.250244140625	1076.890014648438	-788.6110229492188	-1486.40869140625	905.9718017578125	-781.1226196289062	-1528.651733398438	880.0169067382812	-838.5492553710938	-1543.177734375	1010.121887207031	-837.47314453125	-1447.603393554688	745.2562866210938	-770.9498291015625	-1504.970092773438	800.8995971679688	-832.889892578125	-1453.646484375	824.421142578125	-787.4262084960938	-1768.181396484375	1416.868896484375	-396.0009460449219	-1816.868408203125	1353.979248046875	-337.02099609375	-1831.593139648438	1068.36083984375	-282.3517150878906	-1861.325561523438	1053.117065429688	-341.8057250976562	-1728.037109375	864.498291015625	-275.822509765625	-1812.252319335938	850.5360107421875	-255.9580993652344	-1834.352661132812	1010.767395019531	-272.6025695800781	-1731.155639648438	705.6972045898438	-268.9697265625	-1720.5419921875	764.91455078125	-257.4884033203125	-1796.843505859375	763.4168701171875	-249.5209808349609	-1700.78564453125	1650.3701171875	-448.8441467285156	-1508.008666992188	1644.772705078125	-526.3360595703125	-1568.173706054688	1645.819702148438	-409.8244018554688	-1633.354248046875	1655.984252929688	-613.2890625	-1589.025512695312	866.831787109375	-726.8475341796875	-1794.700561523438	861.6758422851562	-386.8134460449219	-1672.424560546875	903.7744140625	-387.631103515625	-1537.735961914062	904.5535888671875	-610.1638793945312	-1581.596435546875	444.7221374511719	-695.2359008789062	-1554.67822265625	598.089599609375	-701.2713623046875	-1681.266357421875	34.03887939453125	-762.0228271484375	-1599.816772460938	292.4522399902344	-722.4956665039062	-1512.019409179688	46.82618713378906	-595.0384521484375	-1588.632202148438	54.51997756958008	-600.3244018554688	-1540.823974609375	44.38485336303711	-705.4481811523438	-1754.688598632812	35.54261779785156	-738.5242309570312	-1754.492553710938	470.458251953125	-392.1205749511719	-1760.990844726562	730.0160522460938	-353.3060302734375	-1822.611206054688	41.685791015625	-415.9949035644531	-1769.760131835938	325.7477416992188	-381.4314270019531	-1609.5966796875	49.92003631591797	-359.1960144042969	-1648.853637695312	55.68531036376953	-419.3224792480469	-1715.014892578125	47.40034866333008	-332.8612060546875	-1859.64794921875	33.7318229675293	-488.2155456542969	
2	0.01	-1832.59912109375	962.903076171875	-561.6160888671875	-1765.155029296875	963.5780639648438	-685.1569213867188	-1797.186889648438	1057.390991210938	-603.0904541015625	-1554.625610351562	1256.212890625	-490.4945678710938	-1810.751953125	1182.484130859375	-612.8818359375	-1759.5322265625	1451.846557617188	-570.2138061523438	-1586.567016601562	1370.098999023438	-509.4402770996094	-1857.723999023438	1330.789428710938	-516.0274047851562	-1749.284790039062	1404.745849609375	-673.2279052734375	-1622.795166015625	1428.904174804688	-708.1397094726562	-1594.647216796875	1309.989379882812	-802.8403930664062	-1567.7734375	1095.738403320312	-830.91015625	-1659.746459960938	1077.055053710938	-789.0330200195312	-1485.348266601562	906.2232666015625	-780.9447021484375	-1527.41259765625	880.1444702148438	-838.5184326171875	-1542.175170898438	1010.236267089844	-837.477783203125	-1446.65234375	745.63330078125	-770.805908203125	-1503.667724609375	801.0966186523438	-832.8231201171875	-1452.459594726562	824.7293090820312	-787.134765625	-1768.081909179688	1416.882446289062	-396.2167053222656	-1816.805786132812	1353.99169921875	-337.2430725097656	-1831.479858398438	1068.416625976562	-282.4502868652344	-1861.152465820312	1053.0732421875	-341.8872680664062	-1727.5224609375	864.741455078125	-275.712890625	-1811.808349609375	850.6287841796875	-255.8789520263672	-1834.157592773438	1010.773620605469	-272.6470336914062	-1730.269287109375	705.8759765625	-268.6436767578125	-1720.090087890625	765.1632690429688	-257.2357177734375	-1796.205810546875	763.5204467773438	-249.3346099853516	-1700.585571289062	1650.38330078125	-449.0387573242188	-1507.739501953125	1644.829956054688	-526.5105590820312	-1567.96728515625	1645.779418945312	-410.0185546875	-1633.1708984375	1655.9599609375	-613.4581298828125	-1588.704711914062	866.7823486328125	-726.846923828125	-1794.601318359375	861.659423828125	-386.9509887695312	-1672.188598632812	903.8067016601562	-387.6942443847656	-1537.410766601562	904.5392456054688	-610.156982421875	-1581.497314453125	444.715087890625	-695.2088623046875	-1554.412841796875	598.0411987304688	-701.194091796875	-1681.275146484375	34.0318603515625	-762.031982421875	-1599.78662109375	292.5088195800781	-722.4879760742188	-1512.040283203125	46.84318161010742	-595.0385131835938	-1588.859252929688	54.37576675415039	-600.4080200195312	-1540.845947265625	44.42189025878906	-705.4500122070312	-1754.686157226562	35.48683166503906	-738.53515625	-1754.411865234375	470.4314270019531	-392.191162109375	-1760.909545898438	730.048095703125	-353.4390258789062	-1822.62158203125	41.69768524169922	-416.0018615722656	-1769.696899414062	325.7447204589844	-381.4560241699219	-1609.609619140625	49.92749404907227	-359.1894226074219	-1648.865478515625	55.68071746826172	-419.3277893066406	-1715.012084960938	47.4029655456543	-332.8609008789062	-1859.65673828125	33.73112869262695	-488.2232666015625	
3	0.02	-1832.390502929688	962.9223022460938	-561.8748779296875	-1764.6884765625	963.59228515625	-685.2677001953125	-1796.889404296875	1057.397827148438	-603.3849487304688	-1554.4638671875	1256.2041015625	-490.5537719726562	-1810.481811523438	1182.458862304688	-613.162353515625	-1759.1806640625	1451.75244140625	-570.4334106445312	-1586.37255859375	1370.060546875	-509.5565490722656	-1857.607788085938	1330.814819335938	-516.4032592773438	-1748.928100585938	1404.704467773438	-673.5147094726562	-1622.4189453125	1428.908203125	-708.259521484375	-1594.076416015625	1310.063110351562	-802.8972778320312	-1566.679077148438	1095.786499023438	-830.9750366210938	-1658.9775390625	1077.142822265625	-789.4993896484375	-1484.031982421875	906.5354614257812	-780.7144775390625	-1525.882446289062	880.3217163085938	-838.4744262695312	-1540.9345703125	1010.377502441406	-837.4872436523438	-1445.27880859375	746.0942993164062	-770.5716552734375	-1502.037841796875	801.3507080078125	-832.7088012695312	-1451.013061523438	825.1109008789062	-786.7855834960938	-1767.942504882812	1416.892822265625	-396.4776916503906	-1816.697143554688	1353.995727539062	-337.5113830566406	-1831.302734375	1068.48388671875	-282.5831909179688	-1860.902709960938	1053.009521484375	-341.9860534667969	-1726.877319335938	865.0178833007812	-275.5988159179688	-1811.223266601562	850.7302856445312	-255.7786865234375	-1833.870727539062	1010.77734375	-272.68798828125	-1729.181030273438	706.0892944335938	-268.2528991699219	-1719.443969726562	765.4418334960938	-256.938720703125	-1795.41259765625	763.6580200195312	-249.1033935546875	-1700.347045898438	1650.394287109375	-449.2558898925781	-1507.402099609375	1644.88623046875	-526.7213745117188	-1567.702880859375	1645.725219726562	-410.2673034667969	-1632.947387695312	1655.935791015625	-613.6524658203125	-1588.29931640625	866.7186279296875	-726.8526611328125	-1794.485595703125	861.6480712890625	-387.1241455078125	-1671.916015625	903.8353881835938	-387.7686767578125	-1537.029663085938	904.5093994140625	-610.141357421875	-1581.376708984375	444.6986389160156	-695.1680908203125	-1554.080078125	597.9713134765625	-701.0933837890625	-1681.2861328125	34.02252960205078	-762.0455932617188	-1599.711059570312	292.5783081054688	-722.4627075195312	-1512.068115234375	46.85947799682617	-595.0336303710938	-1589.1337890625	54.20547485351562	-600.5018310546875	-1540.874877929688	44.47209167480469	-705.4561157226562	-1754.689697265625	35.42950439453125	-738.5518188476562	-1754.294311523438	470.401611328125	-392.2618408203125	-1760.806274414062	730.0857543945312	-353.6060180664062	-1822.630859375	41.70546722412109	-416.0054016113281	-1769.614624023438	325.7431640625	-381.4825134277344	-1609.622802734375	49.93383407592773	-359.18310546875	-1648.87841796875	55.67859649658203	-419.3332824707031	-1715.009643554688	47.40566253662109	-332.8606872558594	-1859.666259765625	33.73309707641602	-488.2315979003906	
4	0.03	-1832.12255859375	962.936279296875	-562.179443359375	-1764.160034179688	963.6155395507812	-685.4055786132812	-1796.561157226562	1057.412963867188	-603.7134399414062	-1554.246826171875	1256.19287109375	-490.6267700195312	-1810.147094726562	1182.425537109375	-613.4822998046875	-1758.775512695312	1451.650512695312	-570.6797485351562	-1586.123657226562	1370.014526367188	-509.7026672363281	-1857.420776367188	1330.824584960938	-516.803466796875	-1748.522216796875	1404.654174804688	-673.823486328125	-1621.98583984375	1428.912841796875	-708.40087890625	-1593.404174804688	1310.144409179688	-802.97265625	-1565.427856445312	1095.862915039062	-831.0643310546875	-1657.951416015625	1077.12890625	-789.97314453125	-1482.525512695312	906.8922119140625	-780.4337768554688	-1524.137329101562	880.5436401367188	-838.4166259765625	-1539.511352539062	1010.536743164062	-837.4981689453125	-1443.506958007812	746.6041870117188	-770.2396240234375	-1500.159790039062	801.6527709960938	-832.543701171875	-1449.376831054688	825.543212890625	-786.398681640625	-1767.763549804688	1416.896728515625	-396.7685546875	-1816.533569335938	1353.988647460938	-337.809814453125	-1831.053100585938	1068.557861328125	-282.7481689453125	-1860.570922851562	1052.925048828125	-342.0952758789062	-1726.130615234375	865.3040161132812	-275.4923400878906	-1810.513916015625	850.8311157226562	-255.6620025634766	-1833.484252929688	1010.777038574219	-272.7194519042969	-1727.951171875	706.3245239257812	-267.8251953125	-1718.604248046875	765.729736328125	-256.6228942871094	-1794.49755859375	763.823974609375	-248.841064453125	-1700.079956054688	1650.398681640625	-449.4772338867188	-1507.014038085938	1644.93115234375	-526.9555053710938	-1567.38525390625	1645.661254882812	-410.5537719726562	-1632.691650390625	1655.9150390625	-613.8578491210938	-1587.824340820312	866.6442260742188	-726.8676147460938	-1794.360717773438	861.645263671875	-387.3284912109375	-1671.62841796875	903.8560180664062	-387.8484191894531	-1536.620483398438	904.4601440429688	-610.1145629882812	-1581.23779296875	444.6685485839844	-695.1100463867188	-1553.697875976562	597.8798217773438	-700.9751586914062	-1681.297973632812	34.01126480102539	-762.063232421875	-1599.576904296875	292.6572265625	-722.4159545898438	-1512.1015625	46.87269592285156	-595.022216796875	-1589.418823242188	54.03384017944336	-600.5868530273438	-1540.90966796875	44.53384399414062	-705.46728515625	-1754.700927734375	35.37683486938477	-738.57470703125	-1754.138427734375	470.3719177246094	-392.3212280273438	-1760.685180664062	730.12646484375	-353.7992553710938	-1822.637939453125	41.70934295654297	-416.0059509277344	-1769.515991210938	325.7433471679688	-381.5080261230469	-1609.634643554688	49.93792343139648	-359.1772766113281	-1648.890380859375	55.67916870117188	-419.3380432128906	-1715.0078125	47.40808868408203	-332.8606567382812	-1859.675048828125	33.73716354370117	-488.2393493652344	
